<svg width="90" height="90" viewBox="0 0 90 90" fill="none" xmlns="http://www.w3.org/2000/svg">
<path d="M43.125 20.625C47.2671 20.625 50.625 17.2671 50.625 13.125C50.625 8.98286 47.2671 5.625 43.125 5.625C38.9829 5.625 35.625 8.98286 35.625 13.125C35.625 17.2671 38.9829 20.625 43.125 20.625Z" fill="#545454"/>
<path d="M45.4875 26.7C44.85 25.3875 43.8375 24.2625 42.4875 23.5125C41.391 22.8778 40.1502 22.5343 38.8834 22.5146C37.6166 22.4949 36.3658 22.7997 35.25 23.4V23.3625L15 34.875V52.5H22.5V39.225L28.125 36.0375C26.925 40.1625 26.25 44.4375 26.25 48.75V68.7375L16.5 81.75L22.5 86.25L33.75 71.25L34.575 57.975L41.25 67.5V86.25H48.75V61.875L41.3625 51.3375C41.2125 49.3875 40.8375 44.7375 43.05 38.5875C45.8625 42.8625 50.1 46.0125 55.05 47.625L77.3625 86.25L80.625 84.375L60.075 48.75H63.75V41.25C61.9125 41.25 52.95 41.8875 48.45 32.9625" fill="#545454"/>
</svg>
