<svg width="113" height="106" viewBox="0 0 113 106" fill="none" xmlns="http://www.w3.org/2000/svg">
<path d="M73.6941 50.4C75.5753 50.4 77.1612 51.072 78.4518 52.416C79.7423 53.76 80.3767 55.328 80.3548 57.12L54.0072 67.2L31.0392 60.48V30.24H37.4374L61.2914 39.2784C62.9975 39.9728 63.8506 41.2272 63.8506 43.0416C63.8506 44.0944 63.4788 45.0128 62.7351 45.7968C61.9913 46.5808 61.0507 46.9952 59.9133 47.04H50.7261L44.9841 44.7888L43.9013 47.9472L50.7261 50.4H73.6941ZM60.5695 4.1328C62.8882 1.3776 65.8412 0 69.4286 0C72.4035 0 74.9191 1.12 76.9752 3.36C79.0314 5.6 80.1251 8.176 80.2564 11.088C80.2564 13.3952 79.1627 16.1504 76.9752 19.3536C74.7878 22.5568 72.6332 25.2336 70.5114 27.384C68.3896 29.5344 65.0756 32.7264 60.5695 36.96C56.0196 32.7264 52.6729 29.5344 50.5292 27.384C48.3855 25.2336 46.2309 22.5568 44.0653 19.3536C41.8998 16.1504 40.8389 13.3952 40.8826 11.088C40.8826 8.0416 41.9435 5.4656 44.0653 3.36C46.1871 1.2544 48.7464 0.1344 51.7432 0C55.2431 0 58.1852 1.3776 60.5695 4.1328ZM11.2998 30.24H24.4769V67.2H11.2998V30.24Z" fill="#545454"/>
</svg>
