<svg width="42" height="30" viewBox="0 0 42 30" fill="none" xmlns="http://www.w3.org/2000/svg">
<path d="M13.7082 14.9998C17.7363 14.9998 20.9998 11.7363 20.9998 7.70817C20.9998 3.68005 17.7363 0.416504 13.7082 0.416504C9.68005 0.416504 6.4165 3.68005 6.4165 7.70817C6.4165 11.7363 9.68005 14.9998 13.7082 14.9998ZM36.6248 11.354C36.6248 14.5196 34.0613 17.0832 30.8957 17.0832C30.1433 17.0833 29.3982 16.9352 28.7031 16.6473C28.0079 16.3595 27.3763 15.9375 26.8442 15.4054C26.3122 14.8734 25.8902 14.2418 25.6023 13.5466C25.3145 12.8515 25.1664 12.1064 25.1665 11.354C25.1665 8.18838 27.73 5.62484 30.8957 5.62484C34.0613 5.62484 36.6248 8.18838 36.6248 11.354ZM13.7082 17.0832C16.5561 17.0832 21.1905 17.9696 24.23 19.7342C25.4717 20.9978 26.2082 22.3759 26.2082 23.7498V29.5832H0.166504V23.7498C0.166504 19.3165 9.18838 17.0832 13.7082 17.0832ZM41.8332 29.5832H28.2915V23.7498C28.2915 22.2748 27.7592 20.9165 26.9123 19.705C28.5175 19.3457 30.0978 19.1665 31.305 19.1665C35.1873 19.1665 41.8332 21.028 41.8332 24.7217V29.5832Z" fill="#545454"/>
</svg>
