<svg width="90" height="95" viewBox="0 0 90 95" fill="none" xmlns="http://www.w3.org/2000/svg">
<path d="M48.75 7.9165C46.7609 7.9165 44.8532 8.75058 43.4467 10.2352C42.0402 11.7199 41.25 13.7335 41.25 15.8332C41.25 17.9328 42.0402 19.9464 43.4467 21.4311C44.8532 22.9158 46.7609 23.7498 48.75 23.7498C52.9125 23.7498 56.25 20.2269 56.25 15.8332C56.25 13.7335 55.4598 11.7199 54.0533 10.2352C52.6468 8.75058 50.7391 7.9165 48.75 7.9165ZM15 27.7082V35.6248H37.5V59.3748L18.4875 79.4436L23.775 85.104L48.975 58.4644L63.75 67.8061V83.1248H71.25V65.5894C71.25 64.1644 70.575 62.8978 69.375 62.1853L56.25 53.8332V35.6248H78.75V27.7082H15Z" fill="#545454"/>
</svg>
