<svg width="50" height="50" viewBox="0 0 50 50" fill="none" xmlns="http://www.w3.org/2000/svg">
<path fill-rule="evenodd" clip-rule="evenodd" d="M18.5417 27.7085C19.2047 28.2058 19.643 28.9461 19.7603 29.7666C19.8775 30.587 19.6639 31.4205 19.1667 32.0835L16.0417 36.2502C15.7506 36.6383 15.3731 36.9533 14.9392 37.1702C14.5053 37.3872 14.0268 37.5002 13.5417 37.5002H9.375C8.5462 37.5002 7.75134 37.1709 7.16529 36.5849C6.57924 35.9988 6.25 35.204 6.25 34.3752C6.25 33.5464 6.57924 32.7515 7.16529 32.1655C7.75134 31.5794 8.5462 31.2502 9.375 31.2502H11.9792L14.1667 28.3335C14.4129 28.0052 14.7214 27.7286 15.0745 27.5195C15.4276 27.3104 15.8185 27.1729 16.2247 27.1149C16.631 27.0569 17.0447 27.0794 17.4422 27.1813C17.8398 27.2831 18.2134 27.4623 18.5417 27.7085Z" fill="#545454"/>
<path d="M41.1189 31.6594H37.7814L37.1877 31.3865C35.6668 29.6969 33.2043 26.024 31.1408 24.7625C30.2846 24.2335 29.2973 23.9549 28.2908 23.9583H22.396L23.0064 37.5H27.9325C28.7517 37.4976 29.5602 37.3141 30.3002 36.9625C31.0619 36.599 31.7398 36.0811 32.2908 35.4417L32.8845 34.7594C33.6335 35.5917 34.3252 37.5 35.4366 37.5H41.2585C41.9564 37.5 42.4856 37.1927 42.9793 36.6448C43.4731 36.0969 43.7502 35.3542 43.7502 34.5802C43.7502 33.8052 43.4731 33.0625 42.9793 32.5156C42.4856 31.9677 41.8168 31.6594 41.1189 31.6594ZM41.6668 16.1458C41.6668 17.9416 40.9535 19.6638 39.6837 20.9335C38.4139 22.2033 36.6917 22.9167 34.896 22.9167C33.1003 22.9167 31.3781 22.2033 30.1083 20.9335C28.8385 19.6638 28.1252 17.9416 28.1252 16.1458C28.1252 14.3501 28.8385 12.6279 30.1083 11.3581C31.3781 10.0884 33.1003 9.375 34.896 9.375C36.6917 9.375 38.4139 10.0884 39.6837 11.3581C40.9535 12.6279 41.6668 14.3501 41.6668 16.1458Z" fill="#545454"/>
<path fill-rule="evenodd" clip-rule="evenodd" d="M34.8958 20.8333C36.139 20.8333 37.3313 20.3395 38.2104 19.4604C39.0895 18.5813 39.5833 17.389 39.5833 16.1458C39.5833 14.9026 39.0895 13.7103 38.2104 12.8313C37.3313 11.9522 36.139 11.4583 34.8958 11.4583C33.6526 11.4583 32.4603 11.9522 31.5813 12.8313C30.7022 13.7103 30.2083 14.9026 30.2083 16.1458C30.2083 17.389 30.7022 18.5813 31.5813 19.4604C32.4603 20.3395 33.6526 20.8333 34.8958 20.8333ZM34.8958 22.9167C36.6916 22.9167 38.4138 22.2033 39.6835 20.9335C40.9533 19.6638 41.6667 17.9416 41.6667 16.1458C41.6667 14.3501 40.9533 12.6279 39.6835 11.3581C38.4138 10.0884 36.6916 9.375 34.8958 9.375C33.1001 9.375 31.3779 10.0884 30.1081 11.3581C28.8384 12.6279 28.125 14.3501 28.125 16.1458C28.125 17.9416 28.8384 19.6638 30.1081 20.9335C31.3779 22.2033 33.1001 22.9167 34.8958 22.9167Z" fill="#545454"/>
</svg>
